<?xml version="1.0" encoding="utf-8"?>
<!-- Generator: Adobe Illustrator 27.3.1, SVG Export Plug-In . SVG Version: 6.00 Build 0)  -->
<svg version="1.1" id="Layer_1" xmlns="http://www.w3.org/2000/svg" xmlns:xlink="http://www.w3.org/1999/xlink" x="0px" y="0px"
	 viewBox="0 0 2980 702" style="enable-background:new 0 0 2980 702;" xml:space="preserve">
<style type="text/css">
	.st0{fill:#637177;}
	.st1{fill:url(#SVGID_1_);}
</style>
<path class="st0" d="M1134.2,421.3c-41.3-0.1-82.6-0.1-123.9-0.1c-2.7,0-4.6,0.9-5.7,2.7c-11.3,18.8-22.6,37.5-34,56.3
	c0,0-0.4,0.7-1,2.1c-0.7,1.6-2.1,2.3-4,2.2c-1.1-0.1-1.7-0.1-1.7-0.1c-22.1,0-44.3,0-66.6,0c-0.8,0-1-0.3-0.6-1l187.9-290.1
	c0.3-0.4,0.7-0.7,1.2-0.7h64.3c0.6,0,1.1,0.4,1.3,1c1.8,7,3.4,13.7,5,20c22.2,89.7,44.3,179.7,66.5,269.9c0.1,0.4-0.1,0.7-0.5,0.8
	c-0.1,0-0.1,0-0.2,0h-65.7c-0.6,0-1-0.4-1.2-0.9c-3.9-18.1-7.9-36.2-11.9-54.3c-0.8-3.4-1.4-5.9-2-7.4c-0.1-0.3-0.4-0.5-0.7-0.5
	C1139.6,421.4,1137.4,421.3,1134.2,421.3z M1039.8,371.1c12.9,0.5,25.7,0.7,38.7,0.6c16.8,0,33.3-0.2,49.8-0.5
	c1.5,0,2.1-0.8,1.8-2.3c-6.6-31.2-13.3-62.3-20.1-93.3c-1.1-4.9-2.4-10-3.8-15.1c-0.2-0.8-0.6-0.9-1-0.1
	c-20.3,32.8-40.5,65.8-60.8,98.9c-2,3.2-3.8,6.5-5.5,9.9c-0.3,0.6-0.1,1.4,0.6,1.7C1039.5,371,1039.6,371.1,1039.8,371.1z"/>
<path class="st0" d="M2571.9,324c3.7,0.2,7.5,0.2,11.4,0.2c7.2-0.1,10.9-0.2,10.9-0.2c37.1-0.1,74,0,110.9,0.3
	c0.5,0,0.9,0.4,0.9,0.9c0,0.1,0,0.1,0,0.2l-11,51.5c-0.1,0.7-0.8,1.2-1.5,1.2h-131.9c-0.5,0-0.9,0.3-1,0.8c-0.9,2.6-1.5,5.3-2.1,8
	c-6.3,32.3-12.8,64.6-19.4,96.9c-0.1,0.5-0.5,0.9-1.1,0.9h-65.8c-0.3,0-0.5-0.2-0.5-0.5c0,0,0-0.1,0-0.1l58.2-290.3
	c0.1-0.5,0.5-0.8,1-0.8h218.1c0.5,0,0.9,0.4,0.9,0.9c0,0.1,0,0.1,0,0.2l-10.8,52.3c-0.1,0.4-0.4,0.6-0.8,0.6l-150.1-0.2
	c-0.9,0-1.6,0.6-1.9,1.4c-0.6,2-1.1,4.2-1.5,6.4c-0.7,3.8-1,5.7-1,5.7c-4.1,20.1-8.3,41.1-12.6,62.8c-0.1,0.5,0.2,1,0.8,1.2
	C2571.8,324,2571.9,324,2571.9,324z"/>
<path class="st0" d="M1329.7,289.3l-75.3-0.1c-0.5,0-0.9-0.4-0.9-0.9c0-0.1,0-0.1,0-0.2l9.1-44.1c0-0.2,0.2-0.3,0.4-0.3
	c56.4-0.2,112.8-0.3,169.2-0.2c0,0,6,0.1,17.8,0.2c6.7,0.1,13.5,0,20.4-0.2c0.8,0,1.5,0.6,1.6,1.5c0,0.1,0,0.2,0,0.4l-9.1,43
	c-0.1,0.7-0.8,1.2-1.5,1.2c-25-0.4-49.8-0.4-74.3-0.1c-0.3,0-0.6,0.2-0.7,0.5c-0.5,1.5-1,3.4-1.5,5.6
	c-12.5,62.6-25.2,125.3-38,188.1c-0.1,0.6-0.7,1-1.3,1l-53-0.2c-0.5,0-1-0.4-1-1c0-0.1,0-0.1,0-0.2l38.5-193.5
	C1330.1,289.6,1330,289.4,1329.7,289.3C1329.7,289.3,1329.7,289.3,1329.7,289.3z"/>
<path class="st0" d="M1638.6,386.5c0.1-0.4-0.2-0.7-0.5-0.8c0,0-0.1,0-0.1,0h-107.6c-0.4,0-0.8,0.3-0.9,0.7l-19.3,96.7
	c-0.2,0.8-0.8,1.4-1.6,1.4h-53.3c-0.3,0-0.6-0.3-0.6-0.6c0,0,0,0,0-0.1c0.1-1.7,0.4-3.5,0.7-5.3c15.5-77.8,31.1-155.9,46.8-234.1
	c0.1-0.4,0.4-0.7,0.9-0.7l54.3,0.3c0.2,0,0.4,0.2,0.4,0.4c0,0,0,0.1,0,0.1l-18.5,92.8c-0.1,0.7,0.3,1.4,1,1.5c0,0,0.1,0,0.1,0
	c2.9,0.3,6,0.4,9.4,0.4c32.2,0,64.8,0,97.5,0c0.6,0,1.1-0.4,1.2-1l18.5-93.5c0.1-0.7,0.7-1.2,1.4-1.2l53.3,0.2
	c0.4,0,0.8,0.4,0.8,0.8c0,0.1,0,0.1,0,0.2l-47.9,239.1c-0.1,0.4-0.5,0.7-0.9,0.7h-52.9c-0.9,0-1.5-0.7-1.5-1.5c0-0.1,0-0.2,0-0.3
	L1638.6,386.5z"/>
<path class="st0" d="M1803.3,438.9c37.7,0.1,75.5,0.1,113.2,0.1c0.5,0,0.9,0.4,0.9,0.9c0,0.1,0,0.1,0,0.2l-9,43.5
	c-0.1,0.5-0.5,0.9-1.1,0.9l-173.9-0.1c-0.8,0-1.4-0.6-1.4-1.4c0-0.1,0-0.2,0-0.3l47.5-237.6c0.2-1,1.1-1.7,2.1-1.7l53.2,0.1
	c0.3,0,0.6,0.3,0.6,0.6c0,0,0,0,0,0c0,1.6-0.2,3.1-0.5,4.5c-12.5,62-24.9,124-37.3,186c-0.2,0.9-0.2,2-0.2,3.3
	c0,0.4,0.4,0.8,0.8,0.7c0,0,0,0,0,0c0.9-0.1,1.7-0.1,2.5,0C1802.4,438.9,1803.2,438.9,1803.3,438.9z"/>
<path class="st0" d="M2024.8,341.2l109.5,0.3c0.5,0,1,0.4,1,1c0,0.1,0,0.1,0,0.2l-8,40.1c-0.1,0.5-0.5,0.9-1,0.9
	c-34.3-0.2-68.8-0.3-103.4-0.3c-2.3,0-4.5,0.1-6.6,0.4c-0.7,0.1-1.2,0.6-1.4,1.3l-10.9,54.4c-0.1,0.4,0.2,0.8,0.6,0.9
	c0.1,0,0.1,0,0.2,0c43.6-0.4,86.8-0.4,129.8,0c0.4,0,0.7,0.3,0.7,0.7c0,0,0,0.1,0,0.1l-9,42.6c-0.1,0.6-0.7,1.1-1.4,1.1
	c-3-0.1-5.8-0.2-8.5-0.2c-58.7-0.1-117.3-0.1-175.8-0.1c-0.4,0-0.7-0.3-0.7-0.7c0,0,0-0.1,0-0.1l47.9-239.4c0.1-0.4,0.4-0.7,0.8-0.7
	c17.5,0.1,35.1,0.2,52.8,0.1c42.1-0.1,84.3-0.2,126.7-0.2c0.9,0,1.5,0.7,1.5,1.6c0,0.1,0,0.2,0,0.3l-8.7,41.4
	c-0.2,0.9-0.9,1.5-1.8,1.5c-39.4,0-78.8,0-118.2,0.1c-1.3,0-2.6-0.1-4.1-0.4c-1.5-0.3-2.4,0.4-2.7,1.8c-2.9,14.1-5.7,28.4-8.4,43
	c-0.7,3.6-1,6.2-1.2,8C2024.3,341,2024.5,341.2,2024.8,341.2C2024.8,341.2,2024.8,341.2,2024.8,341.2z"/>
<path class="st0" d="M2258.8,290.3c-0.1-0.6-0.6-1-1.1-1H2184c-0.7,0-1.2-0.6-1.2-1.2c0-0.1,0-0.1,0-0.2c2.5-14.6,5.5-29.1,8.8-43.5
	c0.1-0.5,0.6-0.9,1.1-0.9c13,0.2,25.6,0.2,37.8,0.2c56.5-0.2,113-0.2,169.6,0c0.5,0,0.9,0.4,0.9,0.9c0,0.1,0,0.1,0,0.2l-8.7,42.8
	c-0.3,1.3-1,1.9-2.3,1.9l-73.3-0.2c-0.9,0-1.8,0.7-1.9,1.6L2276,483.8c-0.1,0.5-0.6,0.9-1.1,0.9l-53.2-0.2c-0.5,0-0.9-0.4-0.9-0.9
	c0,0,0-0.1,0-0.1c0.4-3,0.9-5.9,1.5-8.7c12.2-60.6,24.3-121.1,36.3-181.8C2258.7,291.9,2258.8,291,2258.8,290.3z"/>
<path class="st0" d="M2485.8,243.7c0.6,0,1.1,0.5,1.1,1.1c0,0.1,0,0.1,0,0.2l-47.8,238.7c-0.1,0.4-0.4,0.7-0.9,0.7l-53.4,0.1
	c-0.7,0-1.3-0.6-1.3-1.3c0-0.1,0-0.2,0-0.2l47.6-237.8c0.2-0.9,1-1.6,2-1.6L2485.8,243.7z"/>
<path class="st0" d="M2807.6,243.8c6.6,0,13.4,0,20.5,0c0.6,0,1.1,0.5,1.1,1.1c0,0.1,0,0.1,0,0.2c-5.2,26.6-10.4,52.9-15.7,79.1
	c-10.8,53.2-21.5,106.3-32.1,159.4c-0.1,0.5-0.6,0.9-1.1,0.9l-54-0.1c-0.3,0-0.5-0.2-0.5-0.5c0,0,0-0.1,0-0.1l48-239.8
	c0.1-0.3,0.3-0.5,0.6-0.5C2785.4,243.7,2796.5,243.8,2807.6,243.8z"/>
<linearGradient id="SVGID_1_" gradientUnits="userSpaceOnUse" x1="350.5663" y1="92.8413" x2="695.4041" y2="690.1179">
	<stop  offset="0" style="stop-color:#11568C"/>
	<stop  offset="1" style="stop-color:#00C5F4"/>
</linearGradient>
<path class="st1" d="M856.7,274.8c-4.5-13.4-11.9-24.4-22.4-32.8c-17.1-13.8-36.8-18.6-59.1-14.5c-0.3,0.1-0.6,0-0.9-0.2L714,186.7
	l-112.2-75.5l-25-16.9c-0.3-0.2-0.5-0.6-0.5-1c1.9-19.1-2.4-35.9-13-50.5c-4-5.4-8.6-10.2-13.9-14.3c-10.3-7.9-21.9-12.6-34.8-14.2
	c-6.7-0.8-13.3-0.7-19.9,0.5c-10.4,1.8-19.9,5.7-28.5,11.6c-5.4,3.8-10.3,8.3-14.6,13.6C439,55.4,434,73.6,436.2,94.5
	c0,0.4-0.1,0.7-0.4,0.9l-197,132.4c-0.6,0.4-1.4,0.6-2.2,0.4c-10.5-2.7-21.2-3-32.1-0.6c-15.1,3.2-27.9,10.5-38.2,22
	c-12.7,14-18.6,30.9-17.8,50.7c0.9,15.7,6.3,29.6,16.4,41.6c6.7,8,14.8,14.2,24.3,18.6l10.8,4.1c0.3,0.1,0.6,0.3,0.7,0.6L252.5,484
	l35.8,82.5c0.4,0.6,0.4,1.1,0,1.4c-11.2,9.8-18.6,21.6-22.2,35.6c-4.7,18.3-2.5,35.6,6.5,52c9.9,17.2,24,28.3,42.3,33.6
	c6.6,1.9,13.2,2.8,19.7,2.8c9-0.1,17.8-1.9,26.3-5.3c12.9-5.3,23.4-13.8,31.5-25.5c0.3-0.5,0.9-0.8,1.5-0.8l46.4-0.3l173.4-0.4
	c0.3,0,0.7,0.1,0.8,0.4l1,1.3c11,15.5,25.5,25.2,43.4,29c6.6,1.4,13.2,1.9,19.9,1.4c10.2-0.7,19.6-3.5,28.2-8.2
	c19.4-10.7,31.3-26.9,35.8-48.5c0.8-3.9,1.2-8,1.2-12.5c0-4.8-0.2-9-0.7-12.6c-1-6.6-3.3-13.4-6.9-20.6c-4-7.8-9.2-14.6-15.8-20.4
	c-0.5-0.4-0.6-1.1-0.4-1.7l24.2-55.9L807.6,365c0.1-0.3,0.4-0.5,0.7-0.6c15.3-4.2,27.7-12.6,37.2-25.2
	C860,319.8,863.7,298.3,856.7,274.8z M518.4,154.4c0-0.3,0.2-0.6,0.5-0.7c21.1-4.4,37.5-16.2,49.2-35.5c0,0,0,0,0,0
	c0.4-0.5,1.1-0.7,1.7-0.3l10.9,7.3l108,72.5l60,40.3c0.1,0,0.1,0.1,0.2,0.2c0.2,0.3,0.1,0.7-0.1,0.9c-21.6,16.2-31.3,38.4-29.1,66.9
	c0,0.5-0.3,0.9-0.7,1.1l-118.2,42.5c-0.2,0.1-0.5,0-0.6-0.3L596,339c-6.8-14.6-16.3-26.6-28.4-36.1c-14.3-11.1-30.7-18-49-20.5
	c-0.3,0-0.5-0.3-0.5-0.6l0.3-108.8L518.4,154.4z M496.2,172c0,0,0-0.1,0-0.1c0,0,0,0,0,0C496.3,171.9,496.2,171.9,496.2,172z
	 M496.3,171.8C496.3,171.7,496.3,171.7,496.3,171.8C496.3,171.7,496.3,171.7,496.3,171.8z M496.4,171.7
	C496.4,171.6,496.5,171.6,496.4,171.7C496.5,171.6,496.4,171.6,496.4,171.7z M496.5,171.6C496.6,171.6,496.6,171.6,496.5,171.6
	C496.6,171.6,496.6,171.6,496.5,171.6z M262.7,240l180.9-121.6c0,0,0,0,0,0c0.4-0.2,0.8-0.1,1,0.3c11,18.9,27.1,30.5,48.3,35
	c0.1,0,0.4,0.1,1.2,0.1c1.1,0.1,1.4,0.9,1,2.2l-0.3,125.6c0,0.4-0.3,0.8-0.7,0.8c-27.6,4.1-49.8,17.1-66.6,39
	c-6.6,8.7-11.8,18.8-15.3,30.3c-0.1,0.3-0.4,0.5-0.7,0.4l-7.4-2.4l-103-37l-12.1-4.5c-0.3-0.1-0.4-0.4-0.4-0.7
	c3.1-22-2.6-41.3-17-57.9c-2.6-3.1-5.5-5.9-8.8-8.4c-0.1-0.1-0.1-0.1-0.2-0.2C262.2,240.7,262.3,240.3,262.7,240z M275,477.5
	l-47.7-110.1c0,0,0-0.1,0-0.1c-0.1-0.3,0.2-0.6,0.5-0.6c23.7-4,41.4-16,53.1-35.9c0.1-0.2,0.4-0.4,0.7-0.3l91.8,33l34.2,12.4
	c0.3,0.1,0.5,0.4,0.5,0.7c-0.5,13.4,1.7,26.4,6.5,38.9c4.8,13,12.2,24.3,22,34l7.1,6.7c0.4,0.4,0.5,1,0.1,1.5l-41,49.5l-40.2,48.5
	c-0.4,0.5-1,0.6-1.6,0.4c-17-6.8-34.2-7.1-51.6-0.8c-0.3,0.1-0.6,0-0.7-0.2l-0.6-1.3L275,477.5z M307.7,557.5
	C307.7,557.5,307.7,557.5,307.7,557.5C307.7,557.5,307.7,557.5,307.7,557.5z M307.7,557.3C307.7,557.4,307.7,557.4,307.7,557.3
	C307.7,557.3,307.7,557.3,307.7,557.3C307.7,557.3,307.7,557.3,307.7,557.3z M307.7,557.6C307.7,557.6,307.7,557.6,307.7,557.6
	C307.7,557.6,307.7,557.6,307.7,557.6z M307.6,557.8C307.6,557.8,307.6,557.7,307.6,557.8C307.6,557.7,307.6,557.8,307.6,557.8z
	 M307.3,554.4C307.3,554.4,307.3,554.4,307.3,554.4C307.3,554.4,307.3,554.4,307.3,554.4z M307.1,554.4
	C307.1,554.4,307.1,554.4,307.1,554.4C307.1,554.4,307.1,554.4,307.1,554.4z M307,554.5C307,554.5,307,554.5,307,554.5
	C307,554.5,307,554.5,307,554.5z M307,554.6C307,554.6,306.9,554.7,307,554.6C306.9,554.7,306.9,554.7,307,554.6
	C306.9,554.6,307,554.6,307,554.6z M403.4,636.8c-0.2-0.1-0.4-0.3-0.3-0.5c2.9-13.4,1.9-26.4-2.8-39c-3.8-10.6-9.9-19.8-18.2-27.6
	c-0.2-0.2-0.2-0.5,0-0.8l14.6-17.7l52.9-64l14.2-17.2c0.3-0.4,0.8-0.5,1.2-0.3c16.2,7.2,32.7,10.1,49.6,8.7
	c9.2-0.6,18.2-2.6,27.2-6.1c0.6-0.2,1.3,0,1.7,0.4l79.9,96.5c0.9,0.8,0.9,1.6,0.2,2.4c-17,18-23.4,39.3-19,64.1c0,0,0,0,0,0.1
	c0,0.2-0.2,0.4-0.4,0.4l-170.8,0.5l-29.8,0.1C403.4,636.8,403.4,636.8,403.4,636.8z M781,366.6C781,366.6,781,366.7,781,366.6
	c0.3,0.1,0.4,0.4,0.3,0.6l-66.5,153.2l-15,34.8c-0.1,0.3-0.4,0.4-0.7,0.3c-18-6.7-35.8-6.4-53.4,0.9c-0.1,0-0.3,0.2-0.9,0.5
	c-0.8,0.4-1.5,0.3-2.1-0.6L564,461.3c0,0,0,0,0-0.1c-0.2-0.3-0.1-0.8,0.2-1c3.8-2.6,7.3-5.6,10.6-9c21.6-21.2,31.6-47.1,29.9-77.8
	c0-0.4,0.3-0.6,0.7-0.8c40.4-14.5,80.7-29,121.1-43.5c0.2-0.1,0.5,0,0.7,0.3l1,1.5c11.3,19.5,28.2,31.2,50.5,35.2L781,366.6z"/>
</svg>
